<mxfile host="Electron" agent="Mozilla/5.0 (Windows NT 10.0; Win64; x64) AppleWebKit/537.36 (KHTML, like Gecko) draw.io/24.7.5 Chrome/126.0.6478.183 Electron/31.3.0 Safari/537.36" version="24.7.5">
  <diagram name="Page-1" id="PH3Yej0j-8zJna7-X2Mj">
    <mxGraphModel dx="2074" dy="1196" grid="1" gridSize="10" guides="1" tooltips="1" connect="1" arrows="1" fold="1" page="1" pageScale="1" pageWidth="1169" pageHeight="1654" math="0" shadow="0">
      <root>
        <mxCell id="0" />
        <mxCell id="1" parent="0" />
        <mxCell id="WHhK3R5hN64DXs0xOx39-7" value="CICD Pipeline" style="fillColor=none;strokeColor=#5A6C86;dashed=1;verticalAlign=top;fontStyle=1;fontColor=#000000;whiteSpace=wrap;html=1;fontSize=16;" vertex="1" parent="1">
          <mxGeometry x="200" y="470" width="560" height="210" as="geometry" />
        </mxCell>
        <mxCell id="WHhK3R5hN64DXs0xOx39-10" style="edgeStyle=orthogonalEdgeStyle;rounded=0;orthogonalLoop=1;jettySize=auto;html=1;" edge="1" parent="1" source="WHhK3R5hN64DXs0xOx39-4" target="WHhK3R5hN64DXs0xOx39-5">
          <mxGeometry relative="1" as="geometry" />
        </mxCell>
        <mxCell id="WHhK3R5hN64DXs0xOx39-4" value="CodeBuild" style="sketch=0;points=[[0,0,0],[0.25,0,0],[0.5,0,0],[0.75,0,0],[1,0,0],[0,1,0],[0.25,1,0],[0.5,1,0],[0.75,1,0],[1,1,0],[0,0.25,0],[0,0.5,0],[0,0.75,0],[1,0.25,0],[1,0.5,0],[1,0.75,0]];outlineConnect=0;fontColor=#232F3E;fillColor=#C925D1;strokeColor=#ffffff;dashed=0;verticalLabelPosition=bottom;verticalAlign=top;align=center;html=1;fontSize=12;fontStyle=0;aspect=fixed;shape=mxgraph.aws4.resourceIcon;resIcon=mxgraph.aws4.codebuild;" vertex="1" parent="1">
          <mxGeometry x="440" y="535.5" width="78" height="78" as="geometry" />
        </mxCell>
        <mxCell id="WHhK3R5hN64DXs0xOx39-6" value="Code&lt;div&gt;Pipeline&lt;/div&gt;" style="sketch=0;points=[[0,0,0],[0.25,0,0],[0.5,0,0],[0.75,0,0],[1,0,0],[0,1,0],[0.25,1,0],[0.5,1,0],[0.75,1,0],[1,1,0],[0,0.25,0],[0,0.5,0],[0,0.75,0],[1,0.25,0],[1,0.5,0],[1,0.75,0]];outlineConnect=0;fontColor=#232F3E;fillColor=#8C4FFF;strokeColor=#ffffff;dashed=0;verticalLabelPosition=bottom;verticalAlign=top;align=center;html=1;fontSize=12;fontStyle=0;aspect=fixed;shape=mxgraph.aws4.resourceIcon;resIcon=mxgraph.aws4.data_pipeline;" vertex="1" parent="1">
          <mxGeometry x="200" y="470" width="47" height="47" as="geometry" />
        </mxCell>
        <mxCell id="WHhK3R5hN64DXs0xOx39-8" value="" style="group" vertex="1" connectable="0" parent="1">
          <mxGeometry x="250" y="535.5" width="120" height="119" as="geometry" />
        </mxCell>
        <mxCell id="WHhK3R5hN64DXs0xOx39-2" value="" style="strokeWidth=2;html=1;shape=mxgraph.flowchart.database;whiteSpace=wrap;" vertex="1" parent="WHhK3R5hN64DXs0xOx39-8">
          <mxGeometry x="25" width="70" height="79" as="geometry" />
        </mxCell>
        <mxCell id="WHhK3R5hN64DXs0xOx39-3" value="Source Repository&lt;div&gt;(Github, Gitlab etc)&lt;/div&gt;" style="text;html=1;align=center;verticalAlign=middle;resizable=0;points=[];autosize=1;strokeColor=none;fillColor=none;" vertex="1" parent="WHhK3R5hN64DXs0xOx39-8">
          <mxGeometry y="79" width="120" height="40" as="geometry" />
        </mxCell>
        <mxCell id="WHhK3R5hN64DXs0xOx39-9" style="edgeStyle=orthogonalEdgeStyle;rounded=0;orthogonalLoop=1;jettySize=auto;html=1;" edge="1" parent="1" source="WHhK3R5hN64DXs0xOx39-2" target="WHhK3R5hN64DXs0xOx39-4">
          <mxGeometry relative="1" as="geometry" />
        </mxCell>
        <mxCell id="WHhK3R5hN64DXs0xOx39-11" value="AWS Cloud" style="points=[[0,0],[0.25,0],[0.5,0],[0.75,0],[1,0],[1,0.25],[1,0.5],[1,0.75],[1,1],[0.75,1],[0.5,1],[0.25,1],[0,1],[0,0.75],[0,0.5],[0,0.25]];outlineConnect=0;gradientColor=none;html=1;whiteSpace=wrap;fontSize=12;fontStyle=0;container=0;pointerEvents=0;collapsible=0;recursiveResize=0;shape=mxgraph.aws4.group;grIcon=mxgraph.aws4.group_aws_cloud_alt;strokeColor=#232F3E;fillColor=none;verticalAlign=top;align=left;spacingLeft=30;fontColor=#232F3E;dashed=0;" vertex="1" parent="1">
          <mxGeometry x="120" y="200" width="760" height="560" as="geometry" />
        </mxCell>
        <mxCell id="WHhK3R5hN64DXs0xOx39-12" value="Region" style="points=[[0,0],[0.25,0],[0.5,0],[0.75,0],[1,0],[1,0.25],[1,0.5],[1,0.75],[1,1],[0.75,1],[0.5,1],[0.25,1],[0,1],[0,0.75],[0,0.5],[0,0.25]];outlineConnect=0;gradientColor=none;html=1;whiteSpace=wrap;fontSize=12;fontStyle=0;container=1;pointerEvents=0;collapsible=0;recursiveResize=0;shape=mxgraph.aws4.group;grIcon=mxgraph.aws4.group_region;strokeColor=#00A4A6;fillColor=none;verticalAlign=top;align=left;spacingLeft=30;fontColor=#147EBA;dashed=1;" vertex="1" parent="1">
          <mxGeometry x="160" y="240" width="680" height="480" as="geometry" />
        </mxCell>
        <mxCell id="WHhK3R5hN64DXs0xOx39-5" value="CodeDeploy" style="sketch=0;points=[[0,0,0],[0.25,0,0],[0.5,0,0],[0.75,0,0],[1,0,0],[0,1,0],[0.25,1,0],[0.5,1,0],[0.75,1,0],[1,1,0],[0,0.25,0],[0,0.5,0],[0,0.75,0],[1,0.25,0],[1,0.5,0],[1,0.75,0]];outlineConnect=0;fontColor=#232F3E;fillColor=#C925D1;strokeColor=#ffffff;dashed=0;verticalLabelPosition=bottom;verticalAlign=top;align=center;html=1;fontSize=12;fontStyle=0;aspect=fixed;shape=mxgraph.aws4.resourceIcon;resIcon=mxgraph.aws4.codedeploy;" vertex="1" parent="WHhK3R5hN64DXs0xOx39-12">
          <mxGeometry x="450" y="295.5" width="78" height="78" as="geometry" />
        </mxCell>
        <mxCell id="WHhK3R5hN64DXs0xOx39-20" value="Or" style="text;html=1;align=center;verticalAlign=middle;resizable=0;points=[];autosize=1;strokeColor=none;fillColor=none;fontSize=20;fontStyle=1" vertex="1" parent="WHhK3R5hN64DXs0xOx39-12">
          <mxGeometry x="464" y="150" width="50" height="40" as="geometry" />
        </mxCell>
        <mxCell id="WHhK3R5hN64DXs0xOx39-18" value="EC2 with Autoscale" style="sketch=0;points=[[0,0,0],[0.25,0,0],[0.5,0,0],[0.75,0,0],[1,0,0],[0,1,0],[0.25,1,0],[0.5,1,0],[0.75,1,0],[1,1,0],[0,0.25,0],[0,0.5,0],[0,0.75,0],[1,0.25,0],[1,0.5,0],[1,0.75,0]];outlineConnect=0;fontColor=#232F3E;fillColor=#ED7100;strokeColor=#ffffff;dashed=0;verticalLabelPosition=bottom;verticalAlign=top;align=center;html=1;fontSize=12;fontStyle=0;aspect=fixed;shape=mxgraph.aws4.resourceIcon;resIcon=mxgraph.aws4.ec2;" vertex="1" parent="1">
          <mxGeometry x="530" y="270" width="78" height="78" as="geometry" />
        </mxCell>
        <mxCell id="WHhK3R5hN64DXs0xOx39-19" value="Fargate" style="sketch=0;points=[[0,0,0],[0.25,0,0],[0.5,0,0],[0.75,0,0],[1,0,0],[0,1,0],[0.25,1,0],[0.5,1,0],[0.75,1,0],[1,1,0],[0,0.25,0],[0,0.5,0],[0,0.75,0],[1,0.25,0],[1,0.5,0],[1,0.75,0]];outlineConnect=0;fontColor=#232F3E;fillColor=#ED7100;strokeColor=#ffffff;dashed=0;verticalLabelPosition=bottom;verticalAlign=top;align=center;html=1;fontSize=12;fontStyle=0;aspect=fixed;shape=mxgraph.aws4.resourceIcon;resIcon=mxgraph.aws4.fargate;" vertex="1" parent="1">
          <mxGeometry x="700" y="270" width="78" height="78" as="geometry" />
        </mxCell>
        <mxCell id="WHhK3R5hN64DXs0xOx39-22" style="edgeStyle=orthogonalEdgeStyle;rounded=0;orthogonalLoop=1;jettySize=auto;html=1;dashed=1;" edge="1" parent="1" source="WHhK3R5hN64DXs0xOx39-5" target="WHhK3R5hN64DXs0xOx39-19">
          <mxGeometry relative="1" as="geometry">
            <Array as="points">
              <mxPoint x="649" y="442" />
              <mxPoint x="739" y="442" />
            </Array>
          </mxGeometry>
        </mxCell>
        <mxCell id="WHhK3R5hN64DXs0xOx39-23" style="edgeStyle=orthogonalEdgeStyle;rounded=0;orthogonalLoop=1;jettySize=auto;html=1;dashed=1;entryX=0.5;entryY=1;entryDx=0;entryDy=0;entryPerimeter=0;" edge="1" parent="1" source="WHhK3R5hN64DXs0xOx39-5" target="WHhK3R5hN64DXs0xOx39-18">
          <mxGeometry relative="1" as="geometry">
            <Array as="points">
              <mxPoint x="649" y="442" />
              <mxPoint x="569" y="442" />
            </Array>
          </mxGeometry>
        </mxCell>
      </root>
    </mxGraphModel>
  </diagram>
</mxfile>
